<?xml version="1.0" standalone="no"?><!DOCTYPE svg PUBLIC "-//W3C//DTD SVG 1.1//EN" "http://www.w3.org/Graphics/SVG/1.1/DTD/svg11.dtd"><svg t="1769496033250" class="icon" viewBox="0 0 1024 1024" version="1.1" xmlns="http://www.w3.org/2000/svg" p-id="14025" xmlns:xlink="http://www.w3.org/1999/xlink" width="256" height="256"><path d="M438.072 121.225L328.48 279.027a30 30 0 0 1-16.004 11.618l-184.014 55.314a90 90 0 0 0-28.61 14.581c-39.548 30.11-47.2 86.578-17.09 126.127l116.263 152.712a30 30 0 0 1 6.123 18.828l-4.196 191.872a90 90 0 0 0 5 31.612c16.373 46.932 67.69 71.706 114.622 55.334l181.539-63.328a30 30 0 0 1 19.762 0l181.538 63.328a90 90 0 0 0 31.611 5c49.694-1.086 89.098-42.252 88.011-91.946l-4.195-191.872a30 30 0 0 1 6.123-18.828l116.263-152.712a90 90 0 0 0 14.581-28.61c14.31-47.6-12.68-97.789-60.281-112.098L711.51 290.645a30 30 0 0 1-16.004-11.618L585.916 121.225a90 90 0 0 0-22.585-22.584c-40.825-28.353-96.906-18.242-125.26 22.584z m91.034 26.697a30 30 0 0 1 7.528 7.528l109.592 157.802a90 90 0 0 0 48.013 34.853l184.014 55.314c15.868 4.77 24.864 21.5 20.094 37.366a30 30 0 0 1-4.86 9.537L777.224 603.034a90 90 0 0 0-18.37 56.485l4.196 191.872c0.362 16.565-12.773 30.287-29.337 30.649a30 30 0 0 1-10.537-1.667l-181.538-63.328a90 90 0 0 0-59.288 0l-181.538 63.328c-15.644 5.457-32.75-2.8-38.207-18.445a30 30 0 0 1-1.667-10.537l4.196-191.872a90 90 0 0 0-18.37-56.485L130.501 450.322c-10.037-13.183-7.486-32.006 5.697-42.042a30 30 0 0 1 9.536-4.86l184.014-55.315a90 90 0 0 0 48.014-34.853L487.353 155.45c9.357-13.472 27.772-16.91 41.344-7.807l0.41 0.28z" fill="#ffffff" p-id="14026"></path></svg>